<mxfile host="app.diagrams.net" agent="Mozilla/5.0 (Macintosh; Intel Mac OS X 10_15_7) AppleWebKit/537.36 (KHTML, like Gecko) Chrome/130.0.0.0 Safari/537.36" version="25.0.3">
  <diagram id="7wspHZpAWFyzO9Wrnaed" name="Page-1">
    <mxGraphModel dx="146" dy="124" grid="1" gridSize="10" guides="1" tooltips="1" connect="1" arrows="1" fold="1" page="1" pageScale="1" pageWidth="850" pageHeight="1100" math="1" shadow="0">
      <root>
        <mxCell id="0" />
        <mxCell id="1" parent="0" />
        <mxCell id="0xE7gT8mEiWC2Hoqj_ea-2" value="" style="rounded=0;whiteSpace=wrap;html=1;fillColor=#dae8fc;strokeColor=#000000;" parent="1" vertex="1">
          <mxGeometry x="160" y="280" width="120" height="40" as="geometry" />
        </mxCell>
        <mxCell id="0xE7gT8mEiWC2Hoqj_ea-5" value="" style="endArrow=none;html=1;rounded=0;exitX=0.25;exitY=0;exitDx=0;exitDy=0;entryX=0.25;entryY=1;entryDx=0;entryDy=0;" parent="1" edge="1">
          <mxGeometry width="50" height="50" relative="1" as="geometry">
            <mxPoint x="239.85" y="280" as="sourcePoint" />
            <mxPoint x="239.85" y="320" as="targetPoint" />
          </mxGeometry>
        </mxCell>
        <mxCell id="0xE7gT8mEiWC2Hoqj_ea-6" value="" style="endArrow=none;html=1;rounded=0;exitX=0.25;exitY=0;exitDx=0;exitDy=0;entryX=0.25;entryY=1;entryDx=0;entryDy=0;" parent="1" edge="1">
          <mxGeometry width="50" height="50" relative="1" as="geometry">
            <mxPoint x="280" y="280" as="sourcePoint" />
            <mxPoint x="280" y="320" as="targetPoint" />
          </mxGeometry>
        </mxCell>
        <mxCell id="0xE7gT8mEiWC2Hoqj_ea-7" value="\(\mathcal L\)" style="text;html=1;strokeColor=none;fillColor=none;align=center;verticalAlign=middle;whiteSpace=wrap;rounded=0;" parent="1" vertex="1">
          <mxGeometry x="120" y="280" width="40" height="40" as="geometry" />
        </mxCell>
        <mxCell id="0xE7gT8mEiWC2Hoqj_ea-8" value="\(\frac{\partial}{\partial {\mathsf z}&lt;br&gt;_1}\)" style="text;html=1;strokeColor=none;fillColor=none;align=center;verticalAlign=middle;whiteSpace=wrap;rounded=0;" parent="1" vertex="1">
          <mxGeometry x="160" y="280" width="40" height="40" as="geometry" />
        </mxCell>
        <mxCell id="0xE7gT8mEiWC2Hoqj_ea-13" value="" style="endArrow=none;html=1;rounded=0;exitX=0.25;exitY=0;exitDx=0;exitDy=0;entryX=0.25;entryY=1;entryDx=0;entryDy=0;" parent="1" edge="1">
          <mxGeometry width="50" height="50" relative="1" as="geometry">
            <mxPoint x="200.00000000000003" y="280" as="sourcePoint" />
            <mxPoint x="200.00000000000003" y="320" as="targetPoint" />
          </mxGeometry>
        </mxCell>
        <mxCell id="0xE7gT8mEiWC2Hoqj_ea-15" value="\(\frac{\partial}{\partial {\mathsf z}&lt;br&gt;_2}\)" style="text;html=1;strokeColor=none;fillColor=none;align=center;verticalAlign=middle;whiteSpace=wrap;rounded=0;" parent="1" vertex="1">
          <mxGeometry x="200" y="280" width="40" height="40" as="geometry" />
        </mxCell>
        <mxCell id="0xE7gT8mEiWC2Hoqj_ea-16" value="\(\frac{\partial}{\partial {\mathsf z}&lt;br&gt;_3}\)" style="text;html=1;strokeColor=none;fillColor=none;align=center;verticalAlign=middle;whiteSpace=wrap;rounded=0;" parent="1" vertex="1">
          <mxGeometry x="240" y="280" width="40" height="40" as="geometry" />
        </mxCell>
        <mxCell id="0xE7gT8mEiWC2Hoqj_ea-17" value="" style="rounded=0;whiteSpace=wrap;html=1;strokeColor=#000000;fillColor=#f8cecc;" parent="1" vertex="1">
          <mxGeometry x="300" y="140" width="160" height="120" as="geometry" />
        </mxCell>
        <mxCell id="0xE7gT8mEiWC2Hoqj_ea-18" value="" style="endArrow=none;html=1;rounded=0;exitX=0.25;exitY=1;exitDx=0;exitDy=0;" parent="1" source="0xE7gT8mEiWC2Hoqj_ea-17" edge="1">
          <mxGeometry width="50" height="50" relative="1" as="geometry">
            <mxPoint x="290" y="220" as="sourcePoint" />
            <mxPoint x="340" y="140" as="targetPoint" />
          </mxGeometry>
        </mxCell>
        <mxCell id="0xE7gT8mEiWC2Hoqj_ea-19" value="" style="endArrow=none;html=1;rounded=0;exitX=0.336;exitY=0.999;exitDx=0;exitDy=0;exitPerimeter=0;" parent="1" edge="1">
          <mxGeometry width="50" height="50" relative="1" as="geometry">
            <mxPoint x="380.32000000000005" y="259.88" as="sourcePoint" />
            <mxPoint x="380" y="140" as="targetPoint" />
          </mxGeometry>
        </mxCell>
        <mxCell id="0xE7gT8mEiWC2Hoqj_ea-20" value="" style="endArrow=none;html=1;rounded=0;exitX=0.336;exitY=0.999;exitDx=0;exitDy=0;exitPerimeter=0;" parent="1" edge="1">
          <mxGeometry width="50" height="50" relative="1" as="geometry">
            <mxPoint x="420.32000000000016" y="259.88" as="sourcePoint" />
            <mxPoint x="420" y="140" as="targetPoint" />
          </mxGeometry>
        </mxCell>
        <mxCell id="0xE7gT8mEiWC2Hoqj_ea-24" value="" style="endArrow=none;html=1;rounded=0;jumpSize=60;exitX=0;exitY=0.25;exitDx=0;exitDy=0;entryX=1;entryY=0.25;entryDx=0;entryDy=0;" parent="1" edge="1">
          <mxGeometry width="50" height="50" relative="1" as="geometry">
            <mxPoint x="300" y="220" as="sourcePoint" />
            <mxPoint x="460" y="220" as="targetPoint" />
          </mxGeometry>
        </mxCell>
        <mxCell id="0xE7gT8mEiWC2Hoqj_ea-25" value="" style="endArrow=none;html=1;rounded=0;jumpSize=60;exitX=0;exitY=0.25;exitDx=0;exitDy=0;entryX=1;entryY=0.25;entryDx=0;entryDy=0;" parent="1" edge="1">
          <mxGeometry width="50" height="50" relative="1" as="geometry">
            <mxPoint x="300" y="180" as="sourcePoint" />
            <mxPoint x="460" y="180" as="targetPoint" />
          </mxGeometry>
        </mxCell>
        <mxCell id="0xE7gT8mEiWC2Hoqj_ea-26" value="\(\frac{\partial {\mathsf z}_1}{\partial&amp;nbsp;&lt;br&gt;{\mathsf x}_1}\)" style="text;html=1;strokeColor=none;fillColor=none;align=center;verticalAlign=middle;whiteSpace=wrap;rounded=0;" parent="1" vertex="1">
          <mxGeometry x="300" y="140" width="40" height="40" as="geometry" />
        </mxCell>
        <mxCell id="0xE7gT8mEiWC2Hoqj_ea-38" value="\( \boldsymbol {\mathsf z} \)" style="text;html=1;strokeColor=none;fillColor=none;align=center;verticalAlign=middle;whiteSpace=wrap;rounded=0;" parent="1" vertex="1">
          <mxGeometry x="190" y="255" width="60" height="30" as="geometry" />
        </mxCell>
        <mxCell id="0xE7gT8mEiWC2Hoqj_ea-39" value="\(\frac{\partial {\mathsf z}_2}{\partial&amp;nbsp;&lt;br&gt;{\mathsf x}_2}\)" style="text;html=1;strokeColor=none;fillColor=none;align=center;verticalAlign=middle;whiteSpace=wrap;rounded=0;" parent="1" vertex="1">
          <mxGeometry x="340" y="180" width="40" height="40" as="geometry" />
        </mxCell>
        <mxCell id="0xE7gT8mEiWC2Hoqj_ea-40" value="\(\frac{\partial {\mathsf z}_2}{\partial&amp;nbsp;&lt;br&gt;{\mathsf x}_1}\)" style="text;html=1;strokeColor=none;fillColor=none;align=center;verticalAlign=middle;whiteSpace=wrap;rounded=0;" parent="1" vertex="1">
          <mxGeometry x="300" y="180" width="40" height="40" as="geometry" />
        </mxCell>
        <mxCell id="0xE7gT8mEiWC2Hoqj_ea-41" value="\(\frac{\partial {\mathsf z}_1}{\partial&amp;nbsp;&lt;br&gt;{\mathsf x}_4}\)" style="text;html=1;strokeColor=none;fillColor=none;align=center;verticalAlign=middle;whiteSpace=wrap;rounded=0;" parent="1" vertex="1">
          <mxGeometry x="420" y="140" width="40" height="40" as="geometry" />
        </mxCell>
        <mxCell id="0xE7gT8mEiWC2Hoqj_ea-42" value="\(\frac{\partial {\mathsf z}_1}{\partial&amp;nbsp;&lt;br&gt;{\mathsf x}_3}\)" style="text;html=1;strokeColor=none;fillColor=none;align=center;verticalAlign=middle;whiteSpace=wrap;rounded=0;" parent="1" vertex="1">
          <mxGeometry x="380" y="140" width="40" height="40" as="geometry" />
        </mxCell>
        <mxCell id="0xE7gT8mEiWC2Hoqj_ea-43" value="\(\frac{\partial {\mathsf z}_1}{\partial&amp;nbsp;&lt;br&gt;{\mathsf x}_2}\)" style="text;html=1;strokeColor=none;fillColor=none;align=center;verticalAlign=middle;whiteSpace=wrap;rounded=0;" parent="1" vertex="1">
          <mxGeometry x="340" y="140" width="40" height="40" as="geometry" />
        </mxCell>
        <mxCell id="0xE7gT8mEiWC2Hoqj_ea-45" value="\(\frac{\partial {\mathsf z}_2}{\partial&amp;nbsp;&lt;br&gt;{\mathsf x}_3}\)" style="text;html=1;strokeColor=none;fillColor=none;align=center;verticalAlign=middle;whiteSpace=wrap;rounded=0;" parent="1" vertex="1">
          <mxGeometry x="380" y="180" width="40" height="40" as="geometry" />
        </mxCell>
        <mxCell id="0xE7gT8mEiWC2Hoqj_ea-46" value="\(\frac{\partial {\mathsf z}_2}{\partial&amp;nbsp;&lt;br&gt;{\mathsf x}_4}\)" style="text;html=1;strokeColor=none;fillColor=none;align=center;verticalAlign=middle;whiteSpace=wrap;rounded=0;" parent="1" vertex="1">
          <mxGeometry x="420" y="180" width="40" height="40" as="geometry" />
        </mxCell>
        <mxCell id="0xE7gT8mEiWC2Hoqj_ea-47" value="\(\frac{\partial {\mathsf z}_3}{\partial&amp;nbsp;&lt;br&gt;{\mathsf x}_3}\)" style="text;html=1;strokeColor=none;fillColor=none;align=center;verticalAlign=middle;whiteSpace=wrap;rounded=0;" parent="1" vertex="1">
          <mxGeometry x="380" y="220" width="40" height="40" as="geometry" />
        </mxCell>
        <mxCell id="0xE7gT8mEiWC2Hoqj_ea-48" value="\(\frac{\partial {\mathsf z}_3}{\partial&amp;nbsp;&lt;br&gt;{\mathsf x}_2}\)" style="text;html=1;strokeColor=none;fillColor=none;align=center;verticalAlign=middle;whiteSpace=wrap;rounded=0;" parent="1" vertex="1">
          <mxGeometry x="340" y="220" width="40" height="40" as="geometry" />
        </mxCell>
        <mxCell id="0xE7gT8mEiWC2Hoqj_ea-49" value="\(\frac{\partial {\mathsf z}_3}{\partial&amp;nbsp;&lt;br&gt;{\mathsf x}_1}\)" style="text;html=1;strokeColor=none;fillColor=none;align=center;verticalAlign=middle;whiteSpace=wrap;rounded=0;" parent="1" vertex="1">
          <mxGeometry x="300" y="220" width="40" height="40" as="geometry" />
        </mxCell>
        <mxCell id="0xE7gT8mEiWC2Hoqj_ea-50" value="\(\frac{\partial {\mathsf z}_3}{\partial&amp;nbsp;&lt;br&gt;{\mathsf x}_4}\)" style="text;html=1;strokeColor=none;fillColor=none;align=center;verticalAlign=middle;whiteSpace=wrap;rounded=0;" parent="1" vertex="1">
          <mxGeometry x="420" y="220" width="40" height="40" as="geometry" />
        </mxCell>
        <mxCell id="0xE7gT8mEiWC2Hoqj_ea-51" value="\( \boldsymbol {\mathsf x} \)" style="text;html=1;strokeColor=none;fillColor=none;align=center;verticalAlign=middle;whiteSpace=wrap;rounded=0;" parent="1" vertex="1">
          <mxGeometry x="350" y="255" width="60" height="30" as="geometry" />
        </mxCell>
        <mxCell id="0xE7gT8mEiWC2Hoqj_ea-54" value="\(\frac{\partial {\mathsf x}_1}{\partial&amp;nbsp;&lt;br&gt;{\mathsf y}_1}\)" style="text;html=1;strokeColor=none;fillColor=none;align=center;verticalAlign=middle;whiteSpace=wrap;rounded=0;" parent="1" vertex="1">
          <mxGeometry x="300" y="280" width="40" height="40" as="geometry" />
        </mxCell>
        <mxCell id="0xE7gT8mEiWC2Hoqj_ea-55" value="\(\frac{\partial {\mathsf x}_1}{\partial&amp;nbsp;&lt;br&gt;{\mathsf y}_4}\)" style="text;html=1;strokeColor=none;fillColor=none;align=center;verticalAlign=middle;whiteSpace=wrap;rounded=0;" parent="1" vertex="1">
          <mxGeometry x="420" y="280" width="40" height="40" as="geometry" />
        </mxCell>
        <mxCell id="0xE7gT8mEiWC2Hoqj_ea-56" value="\(\frac{\partial {\mathsf x}_1}{\partial&amp;nbsp;&lt;br&gt;{\mathsf y}_3}\)" style="text;html=1;strokeColor=none;fillColor=none;align=center;verticalAlign=middle;whiteSpace=wrap;rounded=0;" parent="1" vertex="1">
          <mxGeometry x="380" y="280" width="40" height="40" as="geometry" />
        </mxCell>
        <mxCell id="0xE7gT8mEiWC2Hoqj_ea-57" value="\(\frac{\partial {\mathsf x}_1}{\partial&amp;nbsp;&lt;br&gt;{\mathsf y}_2}\)" style="text;html=1;strokeColor=none;fillColor=none;align=center;verticalAlign=middle;whiteSpace=wrap;rounded=0;" parent="1" vertex="1">
          <mxGeometry x="340" y="280" width="40" height="40" as="geometry" />
        </mxCell>
        <mxCell id="0xE7gT8mEiWC2Hoqj_ea-58" value="" style="rounded=0;whiteSpace=wrap;html=1;fontSize=10;strokeColor=#000000;fillColor=#ffe6cc;" parent="1" vertex="1">
          <mxGeometry x="300" y="280" width="160" height="40" as="geometry" />
        </mxCell>
        <mxCell id="0xE7gT8mEiWC2Hoqj_ea-59" value="\(\frac{\partial }{\partial&amp;nbsp;&lt;br&gt;{\mathsf x}_3}\)" style="text;html=1;strokeColor=none;fillColor=none;align=center;verticalAlign=middle;whiteSpace=wrap;rounded=0;" parent="1" vertex="1">
          <mxGeometry x="380" y="280" width="40" height="40" as="geometry" />
        </mxCell>
        <mxCell id="0xE7gT8mEiWC2Hoqj_ea-60" value="\(\frac{\partial }{\partial&amp;nbsp;&lt;br&gt;{\mathsf x}_2}\)" style="text;html=1;strokeColor=none;fillColor=none;align=center;verticalAlign=middle;whiteSpace=wrap;rounded=0;" parent="1" vertex="1">
          <mxGeometry x="340" y="280" width="40" height="40" as="geometry" />
        </mxCell>
        <mxCell id="0xE7gT8mEiWC2Hoqj_ea-61" value="\(\frac{\partial }{\partial&amp;nbsp;&lt;br&gt;{\mathsf x}_1}\)" style="text;html=1;strokeColor=none;fillColor=none;align=center;verticalAlign=middle;whiteSpace=wrap;rounded=0;" parent="1" vertex="1">
          <mxGeometry x="300" y="280" width="40" height="40" as="geometry" />
        </mxCell>
        <mxCell id="0xE7gT8mEiWC2Hoqj_ea-62" value="\(\frac{\partial }{\partial&amp;nbsp;&lt;br&gt;{\mathsf x}_4}\)" style="text;html=1;strokeColor=none;fillColor=none;align=center;verticalAlign=middle;whiteSpace=wrap;rounded=0;" parent="1" vertex="1">
          <mxGeometry x="420" y="280" width="40" height="40" as="geometry" />
        </mxCell>
        <mxCell id="0xE7gT8mEiWC2Hoqj_ea-63" value="" style="endArrow=none;html=1;rounded=0;fontSize=10;jumpSize=60;exitX=0;exitY=0;exitDx=0;exitDy=0;entryX=0;entryY=1;entryDx=0;entryDy=0;" parent="1" source="0xE7gT8mEiWC2Hoqj_ea-60" target="0xE7gT8mEiWC2Hoqj_ea-60" edge="1">
          <mxGeometry width="50" height="50" relative="1" as="geometry">
            <mxPoint x="280" y="280" as="sourcePoint" />
            <mxPoint x="330" y="230" as="targetPoint" />
          </mxGeometry>
        </mxCell>
        <mxCell id="0xE7gT8mEiWC2Hoqj_ea-64" value="" style="endArrow=none;html=1;rounded=0;fontSize=10;jumpSize=60;exitX=0;exitY=0;exitDx=0;exitDy=0;entryX=0;entryY=1;entryDx=0;entryDy=0;" parent="1" edge="1">
          <mxGeometry width="50" height="50" relative="1" as="geometry">
            <mxPoint x="379.71" y="280" as="sourcePoint" />
            <mxPoint x="379.71" y="320" as="targetPoint" />
          </mxGeometry>
        </mxCell>
        <mxCell id="0xE7gT8mEiWC2Hoqj_ea-65" value="" style="endArrow=none;html=1;rounded=0;fontSize=10;jumpSize=60;exitX=0;exitY=0;exitDx=0;exitDy=0;entryX=0;entryY=1;entryDx=0;entryDy=0;" parent="1" edge="1">
          <mxGeometry width="50" height="50" relative="1" as="geometry">
            <mxPoint x="420" y="280" as="sourcePoint" />
            <mxPoint x="420" y="320" as="targetPoint" />
          </mxGeometry>
        </mxCell>
        <mxCell id="0xE7gT8mEiWC2Hoqj_ea-69" value="&lt;font style=&quot;font-size: 10px;&quot;&gt;Local gradients&lt;/font&gt;" style="text;html=1;strokeColor=none;fillColor=none;align=center;verticalAlign=middle;whiteSpace=wrap;rounded=0;fontSize=10;" parent="1" vertex="1">
          <mxGeometry x="208" y="433" width="42" height="30" as="geometry" />
        </mxCell>
        <mxCell id="0xE7gT8mEiWC2Hoqj_ea-70" value="=" style="text;html=1;strokeColor=none;fillColor=none;align=center;verticalAlign=middle;whiteSpace=wrap;rounded=0;fontSize=10;" parent="1" vertex="1">
          <mxGeometry x="260" y="285" width="60" height="30" as="geometry" />
        </mxCell>
        <mxCell id="0xE7gT8mEiWC2Hoqj_ea-72" value="" style="curved=1;endArrow=blockThin;html=1;rounded=0;fontSize=10;jumpSize=60;startArrow=blockThin;startFill=1;endFill=1;endSize=3;startSize=3;exitX=1;exitY=0.25;exitDx=0;exitDy=0;dashed=1;" parent="1" source="0xE7gT8mEiWC2Hoqj_ea-38" edge="1">
          <mxGeometry width="50" height="50" relative="1" as="geometry">
            <mxPoint x="240" y="260" as="sourcePoint" />
            <mxPoint x="280" y="230" as="targetPoint" />
            <Array as="points">
              <mxPoint x="250" y="230" />
            </Array>
          </mxGeometry>
        </mxCell>
        <mxCell id="roKsGAH-WR5mPMgbGOPv-1" value="\(\mathsf{x}_1\)" style="ellipse;whiteSpace=wrap;html=1;aspect=fixed;fillColor=#ffe6cc;strokeColor=#000000;" parent="1" vertex="1">
          <mxGeometry x="225" y="470" width="30" height="30" as="geometry" />
        </mxCell>
        <mxCell id="roKsGAH-WR5mPMgbGOPv-4" value="\(\mathsf{x}_2\)" style="ellipse;whiteSpace=wrap;html=1;aspect=fixed;fillColor=#ffe6cc;strokeColor=#d79b00;dashed=1;" parent="1" vertex="1">
          <mxGeometry x="275" y="470" width="30" height="30" as="geometry" />
        </mxCell>
        <mxCell id="roKsGAH-WR5mPMgbGOPv-5" value="\(\mathsf{x}_3\)" style="ellipse;whiteSpace=wrap;html=1;aspect=fixed;fillColor=#ffe6cc;strokeColor=#d79b00;dashed=1;" parent="1" vertex="1">
          <mxGeometry x="325" y="470" width="30" height="30" as="geometry" />
        </mxCell>
        <mxCell id="roKsGAH-WR5mPMgbGOPv-6" value="\(\mathsf{x}_4\)" style="ellipse;whiteSpace=wrap;html=1;aspect=fixed;fillColor=#ffe6cc;strokeColor=#d79b00;dashed=1;" parent="1" vertex="1">
          <mxGeometry x="375" y="470" width="30" height="30" as="geometry" />
        </mxCell>
        <mxCell id="roKsGAH-WR5mPMgbGOPv-11" style="rounded=0;orthogonalLoop=1;jettySize=auto;html=1;exitX=0.5;exitY=1;exitDx=0;exitDy=0;entryX=1;entryY=0;entryDx=0;entryDy=0;endSize=1;startSize=1;fillColor=#f8cecc;strokeColor=#b85450;strokeWidth=1.5;" parent="1" source="roKsGAH-WR5mPMgbGOPv-7" target="roKsGAH-WR5mPMgbGOPv-1" edge="1">
          <mxGeometry relative="1" as="geometry" />
        </mxCell>
        <mxCell id="roKsGAH-WR5mPMgbGOPv-15" style="edgeStyle=none;rounded=0;orthogonalLoop=1;jettySize=auto;html=1;exitX=0.5;exitY=1;exitDx=0;exitDy=0;entryX=0.5;entryY=0;entryDx=0;entryDy=0;startSize=1;endSize=1;strokeColor=#B3B3B3;strokeWidth=0.5;" parent="1" source="roKsGAH-WR5mPMgbGOPv-7" target="roKsGAH-WR5mPMgbGOPv-4" edge="1">
          <mxGeometry relative="1" as="geometry" />
        </mxCell>
        <mxCell id="roKsGAH-WR5mPMgbGOPv-16" style="edgeStyle=none;rounded=0;orthogonalLoop=1;jettySize=auto;html=1;exitX=0.5;exitY=1;exitDx=0;exitDy=0;entryX=0.5;entryY=0;entryDx=0;entryDy=0;startSize=1;endSize=1;strokeColor=#B3B3B3;strokeWidth=0.5;" parent="1" source="roKsGAH-WR5mPMgbGOPv-7" target="roKsGAH-WR5mPMgbGOPv-5" edge="1">
          <mxGeometry relative="1" as="geometry" />
        </mxCell>
        <mxCell id="roKsGAH-WR5mPMgbGOPv-17" style="edgeStyle=none;rounded=0;orthogonalLoop=1;jettySize=auto;html=1;exitX=0.5;exitY=1;exitDx=0;exitDy=0;entryX=0;entryY=0;entryDx=0;entryDy=0;startSize=1;endSize=1;strokeColor=#B3B3B3;strokeWidth=0.5;" parent="1" source="roKsGAH-WR5mPMgbGOPv-7" target="roKsGAH-WR5mPMgbGOPv-6" edge="1">
          <mxGeometry relative="1" as="geometry" />
        </mxCell>
        <mxCell id="roKsGAH-WR5mPMgbGOPv-7" value="\(\mathsf{z}_1\)" style="ellipse;whiteSpace=wrap;html=1;aspect=fixed;fillColor=#dae8fc;strokeColor=default;" parent="1" vertex="1">
          <mxGeometry x="255" y="399" width="30" height="30" as="geometry" />
        </mxCell>
        <mxCell id="roKsGAH-WR5mPMgbGOPv-12" style="edgeStyle=none;rounded=0;orthogonalLoop=1;jettySize=auto;html=1;exitX=0.5;exitY=1;exitDx=0;exitDy=0;startSize=1;endSize=1;entryX=1;entryY=0;entryDx=0;entryDy=0;fillColor=#f8cecc;strokeColor=#b85450;strokeWidth=1.5;" parent="1" source="roKsGAH-WR5mPMgbGOPv-8" target="roKsGAH-WR5mPMgbGOPv-1" edge="1">
          <mxGeometry relative="1" as="geometry">
            <mxPoint x="255" y="459" as="targetPoint" />
          </mxGeometry>
        </mxCell>
        <mxCell id="roKsGAH-WR5mPMgbGOPv-18" style="edgeStyle=none;rounded=0;orthogonalLoop=1;jettySize=auto;html=1;exitX=0.5;exitY=1;exitDx=0;exitDy=0;entryX=0.5;entryY=0;entryDx=0;entryDy=0;startSize=1;endSize=1;strokeColor=#B3B3B3;strokeWidth=0.5;" parent="1" source="roKsGAH-WR5mPMgbGOPv-8" target="roKsGAH-WR5mPMgbGOPv-4" edge="1">
          <mxGeometry relative="1" as="geometry" />
        </mxCell>
        <mxCell id="roKsGAH-WR5mPMgbGOPv-19" style="edgeStyle=none;rounded=0;orthogonalLoop=1;jettySize=auto;html=1;exitX=0.5;exitY=1;exitDx=0;exitDy=0;startSize=1;endSize=1;strokeColor=#B3B3B3;strokeWidth=0.5;entryX=0.5;entryY=0;entryDx=0;entryDy=0;" parent="1" source="roKsGAH-WR5mPMgbGOPv-8" target="roKsGAH-WR5mPMgbGOPv-5" edge="1">
          <mxGeometry relative="1" as="geometry">
            <mxPoint x="335" y="459" as="targetPoint" />
          </mxGeometry>
        </mxCell>
        <mxCell id="roKsGAH-WR5mPMgbGOPv-20" style="edgeStyle=none;rounded=0;orthogonalLoop=1;jettySize=auto;html=1;exitX=0.5;exitY=1;exitDx=0;exitDy=0;entryX=0;entryY=0;entryDx=0;entryDy=0;startSize=1;endSize=1;strokeColor=#B3B3B3;strokeWidth=0.5;" parent="1" source="roKsGAH-WR5mPMgbGOPv-8" target="roKsGAH-WR5mPMgbGOPv-6" edge="1">
          <mxGeometry relative="1" as="geometry" />
        </mxCell>
        <mxCell id="roKsGAH-WR5mPMgbGOPv-8" value="\(\mathsf{z}_2\)" style="ellipse;whiteSpace=wrap;html=1;aspect=fixed;fillColor=#dae8fc;strokeColor=#000000;" parent="1" vertex="1">
          <mxGeometry x="305" y="399" width="30" height="30" as="geometry" />
        </mxCell>
        <mxCell id="roKsGAH-WR5mPMgbGOPv-14" style="edgeStyle=none;rounded=0;orthogonalLoop=1;jettySize=auto;html=1;exitX=0.5;exitY=1;exitDx=0;exitDy=0;entryX=1;entryY=0;entryDx=0;entryDy=0;startSize=1;endSize=1;fillColor=#f8cecc;strokeColor=#b85450;strokeWidth=1.5;" parent="1" source="roKsGAH-WR5mPMgbGOPv-9" target="roKsGAH-WR5mPMgbGOPv-1" edge="1">
          <mxGeometry relative="1" as="geometry" />
        </mxCell>
        <mxCell id="roKsGAH-WR5mPMgbGOPv-22" style="edgeStyle=none;rounded=0;orthogonalLoop=1;jettySize=auto;html=1;exitX=0.5;exitY=1;exitDx=0;exitDy=0;entryX=0.5;entryY=0;entryDx=0;entryDy=0;startSize=1;endSize=1;strokeColor=#B3B3B3;strokeWidth=0.5;" parent="1" source="roKsGAH-WR5mPMgbGOPv-9" target="roKsGAH-WR5mPMgbGOPv-4" edge="1">
          <mxGeometry relative="1" as="geometry" />
        </mxCell>
        <mxCell id="roKsGAH-WR5mPMgbGOPv-23" style="edgeStyle=none;rounded=0;orthogonalLoop=1;jettySize=auto;html=1;exitX=0.5;exitY=1;exitDx=0;exitDy=0;startSize=1;endSize=1;strokeColor=#B3B3B3;strokeWidth=0.5;entryX=0.5;entryY=0;entryDx=0;entryDy=0;" parent="1" source="roKsGAH-WR5mPMgbGOPv-9" target="roKsGAH-WR5mPMgbGOPv-5" edge="1">
          <mxGeometry relative="1" as="geometry">
            <mxPoint x="335" y="459" as="targetPoint" />
          </mxGeometry>
        </mxCell>
        <mxCell id="roKsGAH-WR5mPMgbGOPv-24" style="edgeStyle=none;rounded=0;orthogonalLoop=1;jettySize=auto;html=1;exitX=0.5;exitY=1;exitDx=0;exitDy=0;entryX=0;entryY=0;entryDx=0;entryDy=0;startSize=1;endSize=1;strokeColor=#B3B3B3;strokeWidth=0.5;" parent="1" source="roKsGAH-WR5mPMgbGOPv-9" target="roKsGAH-WR5mPMgbGOPv-6" edge="1">
          <mxGeometry relative="1" as="geometry" />
        </mxCell>
        <mxCell id="roKsGAH-WR5mPMgbGOPv-9" value="\(\mathsf{z}_3\)" style="ellipse;whiteSpace=wrap;html=1;aspect=fixed;fillColor=#dae8fc;strokeColor=default;" parent="1" vertex="1">
          <mxGeometry x="350" y="399" width="30" height="30" as="geometry" />
        </mxCell>
        <mxCell id="roKsGAH-WR5mPMgbGOPv-25" value="" style="endArrow=classic;html=1;rounded=0;startSize=1;endSize=1;strokeColor=#000000;strokeWidth=2.5;" parent="1" edge="1">
          <mxGeometry width="50" height="50" relative="1" as="geometry">
            <mxPoint x="320" y="334" as="sourcePoint" />
            <mxPoint x="320" y="370" as="targetPoint" />
          </mxGeometry>
        </mxCell>
        <mxCell id="roKsGAH-WR5mPMgbGOPv-26" value="" style="rounded=0;whiteSpace=wrap;html=1;strokeColor=#808080;dashed=1;fillColor=none;" parent="1" vertex="1">
          <mxGeometry x="297" y="138" width="46" height="184" as="geometry" />
        </mxCell>
        <mxCell id="roKsGAH-WR5mPMgbGOPv-30" value="" style="endArrow=none;html=1;rounded=0;startSize=1;endSize=1;strokeColor=#6c8ebf;strokeWidth=1.5;exitX=0.5;exitY=0;exitDx=0;exitDy=0;startArrow=classic;startFill=1;endFill=0;fillColor=#dae8fc;" parent="1" source="roKsGAH-WR5mPMgbGOPv-7" edge="1">
          <mxGeometry width="50" height="50" relative="1" as="geometry">
            <mxPoint x="239" y="439" as="sourcePoint" />
            <mxPoint x="270" y="380" as="targetPoint" />
          </mxGeometry>
        </mxCell>
        <mxCell id="roKsGAH-WR5mPMgbGOPv-35" value="" style="endArrow=none;html=1;rounded=0;startSize=1;endSize=1;strokeColor=#6c8ebf;strokeWidth=1.5;exitX=0.5;exitY=0;exitDx=0;exitDy=0;startArrow=classic;startFill=1;endFill=0;fillColor=#dae8fc;" parent="1" edge="1">
          <mxGeometry width="50" height="50" relative="1" as="geometry">
            <mxPoint x="320" y="399" as="sourcePoint" />
            <mxPoint x="320" y="380" as="targetPoint" />
          </mxGeometry>
        </mxCell>
        <mxCell id="roKsGAH-WR5mPMgbGOPv-36" value="" style="endArrow=none;html=1;rounded=0;startSize=1;endSize=1;strokeColor=#6c8ebf;strokeWidth=1.5;exitX=0.5;exitY=0;exitDx=0;exitDy=0;startArrow=classic;startFill=1;endFill=0;fillColor=#dae8fc;" parent="1" edge="1">
          <mxGeometry width="50" height="50" relative="1" as="geometry">
            <mxPoint x="364.92" y="399" as="sourcePoint" />
            <mxPoint x="365" y="380" as="targetPoint" />
          </mxGeometry>
        </mxCell>
        <mxCell id="roKsGAH-WR5mPMgbGOPv-37" value="&lt;font style=&quot;font-size: 10px;&quot;&gt;Global gradients&lt;/font&gt;" style="text;html=1;strokeColor=none;fillColor=none;align=center;verticalAlign=middle;whiteSpace=wrap;rounded=0;fontSize=8;" parent="1" vertex="1">
          <mxGeometry x="380" y="373" width="44" height="24" as="geometry" />
        </mxCell>
        <mxCell id="roKsGAH-WR5mPMgbGOPv-39" value="&lt;font style=&quot;font-size: 14px;&quot;&gt;\(\frac{\partial \boldsymbol{\mathsf{z}}}{\partial \boldsymbol{\mathsf{x}}}\)&lt;/font&gt;" style="text;html=1;strokeColor=none;fillColor=none;align=center;verticalAlign=middle;whiteSpace=wrap;rounded=0;" parent="1" vertex="1">
          <mxGeometry x="350" y="109" width="60" height="30" as="geometry" />
        </mxCell>
        <mxCell id="rU5Q3aVeJgboiLemVeQ4-1" value="&amp;nbsp; &amp;nbsp;" style="text;html=1;strokeColor=none;fillColor=none;align=center;verticalAlign=middle;whiteSpace=wrap;rounded=0;fontSize=10;" vertex="1" parent="1">
          <mxGeometry x="293" y="510" width="42" height="30" as="geometry" />
        </mxCell>
        <mxCell id="rU5Q3aVeJgboiLemVeQ4-2" value="\(\odot\)" style="text;html=1;align=center;verticalAlign=middle;whiteSpace=wrap;rounded=0;" vertex="1" parent="1">
          <mxGeometry x="215" y="215" width="60" height="30" as="geometry" />
        </mxCell>
      </root>
    </mxGraphModel>
  </diagram>
</mxfile>
